<?xml version="1.0" encoding="utf-8"?>
<!-- Generator: Adobe Illustrator 16.0.0, SVG Export Plug-In . SVG Version: 6.00 Build 0)  -->
<!DOCTYPE svg PUBLIC "-//W3C//DTD SVG 1.1//EN" "http://www.w3.org/Graphics/SVG/1.1/DTD/svg11.dtd">
<svg version="1.1" id="Layer_1" xmlns="http://www.w3.org/2000/svg" xmlns:xlink="http://www.w3.org/1999/xlink" x="0px" y="0px"
	 width="25px" height="25px" viewBox="97.062 103.545 25 25" enable-background="new 97.062 103.545 25 25" xml:space="preserve">
<g>
	<path fill="#07FF15" d="M97.062,114.999c0,1.344,0.398,2.542,1.194,3.595c0.796,1.053,1.822,1.78,3.089,2.167l-0.784,2.034
		c-0.037,0.168,0.024,0.266,0.169,0.266h2.57l-1.254,4.576h0.338l4.79-6.319c0.048-0.048,0.048-0.109,0.024-0.169
		s-0.084-0.085-0.169-0.085h-2.631l2.993-5.618c0.073-0.169,0.024-0.254-0.169-0.254h-3.547c-0.108,0-0.205,0.061-0.266,0.169
		l-1.315,3.475c-0.856-0.218-1.568-0.69-2.135-1.404c-0.567-0.714-0.845-1.525-0.845-2.434c0-1.004,0.338-1.876,1.014-2.615
		s1.521-1.162,2.534-1.283l0.627-0.085c0.157,0,0.241-0.073,0.241-0.206l0.084-0.629c0.121-1.308,0.664-2.41,1.641-3.293
		c0.978-0.884,2.124-1.332,3.438-1.332c1.315,0,2.461,0.448,3.439,1.332c0.989,0.884,1.544,1.985,1.689,3.293l0.072,0.702
		c0,0.145,0.072,0.218,0.229,0.218h1.943c1.098,0,2.027,0.388,2.799,1.15c0.772,0.763,1.159,1.683,1.159,2.76
		c0,1.029-0.362,1.925-1.074,2.676c-0.712,0.75-1.593,1.162-2.643,1.247c-0.157,0-0.241,0.072-0.241,0.23v1.659
		c0,0.133,0.084,0.206,0.241,0.206c0.784-0.024,1.532-0.206,2.244-0.533c0.712-0.327,1.328-0.762,1.833-1.295
		c0.507-0.533,0.917-1.163,1.219-1.901c0.302-0.727,0.459-1.489,0.459-2.276c0-1.09-0.265-2.095-0.808-3.015
		c-0.543-0.92-1.267-1.646-2.184-2.179c-0.917-0.532-1.918-0.799-2.993-0.799h-0.386c-0.398-1.61-1.243-2.929-2.546-3.946
		c-1.303-1.017-2.775-1.538-4.44-1.538c-1.701,0-3.222,0.533-4.537,1.586c-1.315,1.054-2.159,2.409-2.533,4.068
		c-1.327,0.315-2.425,1.005-3.294,2.094C97.472,112.384,97.062,113.606,97.062,114.999z"/>
	<path fill="#07FF15" d="M116.925,127.786c-0.078,0.063-0.093,0.172-0.031,0.25c0.062,0.079,0.156,0.095,0.234,0.032
		c0.078-0.063,0.094-0.173,0.031-0.251S116.987,127.724,116.925,127.786z M116.675,126.534c0.063,0.078,0.156,0.094,0.234,0.03
		c0.078-0.063,0.094-0.172,0.031-0.25c-0.062-0.078-0.156-0.094-0.234-0.031S116.628,126.456,116.675,126.534z M116.706,127.521
		c0.078-0.063,0.094-0.173,0.031-0.251s-0.156-0.095-0.234-0.031c-0.078,0.063-0.094,0.172-0.031,0.25
		C116.534,127.566,116.628,127.583,116.706,127.521z M117.283,127.035c0.078-0.063,0.094-0.172,0.032-0.251
		c-0.063-0.078-0.156-0.094-0.234-0.031c-0.078,0.063-0.094,0.173-0.031,0.25C117.096,127.082,117.206,127.098,117.283,127.035z
		 M117.798,126.612c0.078-0.063,0.094-0.173,0.032-0.251c-0.063-0.078-0.156-0.094-0.234-0.031s-0.093,0.172-0.031,0.25
		C117.612,126.644,117.721,126.659,117.798,126.612z M118.001,126.878c-0.078,0.063-0.093,0.172-0.031,0.25
		c0.063,0.079,0.156,0.095,0.234,0.032c0.078-0.063,0.094-0.172,0.031-0.252C118.173,126.831,118.064,126.815,118.001,126.878z
		 M117.486,127.316c-0.078,0.063-0.093,0.172-0.031,0.25c0.062,0.079,0.156,0.095,0.234,0.032c0.077-0.063,0.093-0.173,0.031-0.251
		C117.658,127.27,117.549,127.254,117.486,127.316z M117.065,125.642c0.078-0.063,0.094-0.172,0.031-0.25
		c-0.063-0.079-0.156-0.094-0.234-0.031c-0.078,0.062-0.094,0.171-0.031,0.25C116.894,125.688,116.987,125.704,117.065,125.642z
		 M116.55,126.08c0.078-0.063,0.094-0.173,0.032-0.251c-0.063-0.078-0.156-0.094-0.234-0.031s-0.094,0.172-0.031,0.251
		C116.379,126.127,116.472,126.142,116.55,126.08z M117.424,126.127c0.078-0.063,0.094-0.173,0.031-0.251
		c-0.062-0.078-0.156-0.094-0.234-0.031c-0.078,0.063-0.094,0.173-0.031,0.251C117.252,126.174,117.361,126.189,117.424,126.127z
		 M111.807,124.342c-0.265,0.219-0.296,0.61-0.094,0.892l0.858,1.127c0.203,0.267,0.531,0.109,0.842,0.095
		c0,0,1.248-0.11,2.091-0.83c0.905-0.751,1.404-2.114,1.404-2.114c0.062-0.281,0.296-0.61,0.094-0.892l-0.858-1.143
		c-0.219-0.266-0.593-0.313-0.843-0.094L111.807,124.342z M115.926,124.264c-0.125,0.11-0.312,0.095-0.421-0.047
		c-0.109-0.141-0.078-0.344,0.047-0.454c0.125-0.11,0.313-0.095,0.421,0.047C116.082,123.951,116.067,124.154,115.926,124.264z
		 M115.458,124.655c0.094-0.078,0.218-0.063,0.296,0.032c0.078,0.094,0.062,0.234-0.031,0.313c-0.094,0.078-0.218,0.063-0.296-0.031
		C115.365,124.874,115.365,124.733,115.458,124.655z M115.068,125c-0.125,0.109-0.312,0.093-0.421-0.048
		c-0.109-0.141-0.078-0.344,0.046-0.454c0.125-0.109,0.313-0.093,0.422,0.047C115.209,124.687,115.193,124.891,115.068,125z
		 M114.647,125.344c0.094-0.079,0.219-0.062,0.297,0.032c0.078,0.093,0.062,0.234-0.031,0.313c-0.094,0.079-0.219,0.063-0.297-0.031
		S114.553,125.422,114.647,125.344z M113.82,125.219c0.125-0.11,0.312-0.094,0.421,0.047c0.109,0.14,0.078,0.345-0.047,0.453
		c-0.125,0.109-0.312,0.095-0.421-0.047C113.679,125.547,113.695,125.344,113.82,125.219z M116.347,128.225
		c-0.078,0.063-0.094,0.172-0.031,0.25c0.063,0.079,0.156,0.094,0.234,0.032c0.078-0.063,0.093-0.173,0.031-0.251
		C116.519,128.178,116.41,128.161,116.347,128.225z M115.567,127.191c-0.078,0.063-0.093,0.173-0.031,0.251
		c0.062,0.078,0.156,0.094,0.234,0.031c0.078-0.063,0.094-0.172,0.031-0.251C115.739,127.145,115.645,127.129,115.567,127.191z
		 M106.238,120.068l4.322,4.195c0.203,0.266,0.578,0.313,0.842,0.094l3.979-3.365c0.265-0.219,0.296-0.61,0.093-0.893l-2.917-5.4
		c-0.203-0.267-0.577-0.313-0.843-0.094l-5.382,4.571C106.066,119.396,106.019,119.787,106.238,120.068z M113.82,120.961
		l-3.136-4.164c-0.187-0.25-0.156-0.642,0.094-0.845c0.889-0.768,1.03-0.986,1.232-0.721l2.715,4.978
		c0.188,0.251,0.156,0.642-0.093,0.846C114.382,121.258,114.023,121.227,113.82,120.961z M112.291,122.229l-3.136-4.164
		c-0.187-0.25-0.156-0.642,0.094-0.846c0.234-0.204,0.593-0.172,0.795,0.094l3.152,4.164c0.188,0.25,0.156,0.642-0.093,0.846
		C112.853,122.542,112.494,122.495,112.291,122.229z M107.72,118.534c0.234-0.219,0.593-0.172,0.795,0.094l3.152,4.164
		c0.188,0.251,0.156,0.642-0.094,0.846c-0.234,0.204-0.593,0.172-0.796-0.094l-3.994-3.914
		C106.597,119.364,106.846,119.271,107.72,118.534z M115.209,126.706c-0.078,0.063-0.094,0.172-0.031,0.25
		c0.063,0.079,0.156,0.095,0.234,0.032c0.078-0.063,0.094-0.173,0.031-0.251C115.381,126.659,115.286,126.644,115.209,126.706z
		 M115.755,126.534c0.062,0.078,0.156,0.094,0.234,0.03c0.078-0.063,0.093-0.172,0.031-0.25c-0.062-0.078-0.156-0.094-0.234-0.031
		S115.692,126.456,115.755,126.534z M116.114,127.004c0.063,0.078,0.156,0.094,0.234,0.031c0.078-0.063,0.094-0.172,0.032-0.251
		c-0.063-0.078-0.156-0.094-0.234-0.03C116.067,126.815,116.067,126.926,116.114,127.004z M115.926,127.677
		c-0.078,0.063-0.093,0.172-0.031,0.25s0.156,0.095,0.234,0.032s0.094-0.173,0.031-0.251S116.004,127.614,115.926,127.677z"/>
</g>
</svg>
